<svg width="210" height="48" viewBox="0 0 210 48" fill="none" xmlns="http://www.w3.org/2000/svg">
<path d="M23.7715 36.0721C24.998 37.8626 23.7213 40.3 21.557 40.3C20.6614 40.3 19.8245 39.8521 19.3253 39.1056L9.72173 24.743C9.5629 24.5055 9.22578 24.4768 9.02947 24.6842C6.51278 27.3426 5.10944 30.8702 5.10944 34.5378V38.1187C5.10944 39.3234 4.13674 40.3 2.93685 40.3H2.55472C1.14379 40.3 0 39.1516 0 37.735V9.565C0 8.14839 1.14379 7 2.55472 7C3.96565 7 5.10944 8.14839 5.10944 9.565V19.7887C5.10944 20.6989 6.22195 21.1358 6.83705 20.4673L18.5334 7.75452C18.976 7.27353 19.5985 7 20.2507 7C22.3026 7 23.3591 9.46426 21.9488 10.9606L15.2576 18.0598C13.9658 19.4305 13.8038 21.5211 14.8688 23.0759L23.7715 36.0721ZM92.9752 40.3H89.3348C84.9342 40.3 81.3669 36.7183 81.3669 32.3V15C81.3669 10.5817 84.9342 7 89.3348 7H93.7371C103.821 7 109.334 13.66 109.334 23.65C109.334 33.64 103.552 40.3 92.9752 40.3ZM86.4763 31.44C86.4763 33.6491 88.2601 35.44 90.4603 35.44H92.9752C100.236 35.44 104.045 31.075 104.045 23.65C104.045 16.27 100.415 11.86 93.3337 11.86H90.4603C88.2601 11.86 86.4763 13.6509 86.4763 15.86V31.44ZM139.061 36.8396C139.684 38.5153 138.45 40.3 136.669 40.3C135.594 40.3 134.635 39.625 134.269 38.6112L132.061 32.5082C131.559 31.122 130.353 30.1142 128.904 29.8703C126.525 29.4695 124.096 29.4695 121.716 29.8703C120.267 30.1142 119.062 31.122 118.56 32.5082L116.353 38.6112C115.985 39.625 115.026 40.3 113.951 40.3C112.171 40.3 110.937 38.5153 111.559 36.8396L121.711 9.50869C122.272 8.00021 123.707 7 125.311 7C126.914 7 128.349 8.00021 128.909 9.50869L139.061 36.8396ZM126.225 16.6577C125.901 15.792 124.68 15.7942 124.36 16.661L121.346 24.7962C121.263 25.018 121.491 25.2276 121.704 25.126C123.985 24.0377 126.633 24.0367 128.914 25.1249C129.127 25.2266 129.355 25.0161 129.273 24.7944L126.225 16.6577ZM149.108 37.78C149.108 39.1718 147.985 40.3 146.598 40.3C145.212 40.3 144.088 39.1718 144.088 37.78V10.159C144.088 8.41434 145.497 7 147.235 7C148.317 7 149.323 7.55839 149.899 8.4784L155.647 17.6635C157.992 21.4112 163.433 21.4065 165.772 17.6547L171.482 8.49553C172.062 7.56509 173.079 7 174.171 7C175.924 7 177.344 8.42628 177.344 10.1857V37.7575C177.344 39.1617 176.211 40.3 174.813 40.3C173.413 40.3 172.28 39.1617 172.28 37.7575V19.682C172.28 18.7203 171.06 18.3129 170.486 19.0831L167.076 23.6619C163.896 27.9318 157.523 27.9422 154.329 23.6827L150.9 19.1093C150.325 18.3423 149.108 18.7507 149.108 19.7107V37.78ZM209.837 36.8396C210.459 38.5153 209.225 40.3 207.444 40.3C206.37 40.3 205.41 39.625 205.044 38.6112L202.836 32.5082C202.334 31.122 201.129 30.1142 199.68 29.8703C197.3 29.4695 194.871 29.4695 192.491 29.8703C191.042 30.1142 189.837 31.122 189.335 32.5082L187.128 38.6112C186.761 39.625 185.801 40.3 184.727 40.3C182.946 40.3 181.712 38.5153 182.334 36.8396L192.486 9.50869C193.047 8.00021 194.482 7 196.086 7C197.69 7 199.124 8.00021 199.685 9.50869L209.837 36.8396ZM197 16.6577C196.677 15.792 195.456 15.7942 195.135 16.661L192.121 24.7962C192.038 25.018 192.266 25.2276 192.479 25.126C194.76 24.0377 197.409 24.0367 199.689 25.1249C199.903 25.2266 200.131 25.0161 200.048 24.7944L197 16.6577Z" fill="white"/>
<mask id="mask0_4378_209" style="mask-type:luminance" maskUnits="userSpaceOnUse" x="29" y="0" width="49" height="48">
<path d="M77.6865 0H29.8789V48H77.6865V0Z" fill="white"/>
</mask>
<g mask="url(#mask0_4378_209)">
<mask id="mask1_4378_209" style="mask-type:luminance" maskUnits="userSpaceOnUse" x="29" y="0" width="49" height="48">
<path d="M77.6865 0H29.8789V48H77.6865V0Z" fill="white"/>
</mask>
<g mask="url(#mask1_4378_209)">
<path d="M53.7854 1.08728C66.388 1.08752 76.6039 11.3469 76.6039 24.0004C76.603 37.4721 65.0822 48.036 51.7195 46.8168L46.8465 46.3716C44.7842 46.1832 42.7057 46.2948 40.675 46.7025C35.0252 47.8371 30.0422 42.8361 31.1713 37.1634C31.5775 35.1243 31.6886 33.0351 31.501 30.9642L31.0604 26.0746C29.8456 12.6573 40.3668 1.08728 53.7854 1.08728ZM53.6949 7.08729C43.6016 7.08729 35.7467 15.8971 36.8613 25.9691L37.2727 29.6781C37.5942 32.5833 37.283 35.5242 36.3623 38.2971C35.7077 40.2708 37.58 42.1485 39.5458 41.4906C42.307 40.5666 45.2349 40.254 48.1274 40.5765L51.8246 40.9896C61.8555 42.108 70.6276 34.2246 70.6279 24.0912C70.6279 14.7011 63.0471 7.08801 53.6949 7.08729Z" fill="white"/>
<path d="M52.6986 19.0876C52.6986 17.4308 51.3608 16.0876 49.7106 16.0876C48.0604 16.0876 46.7227 17.4308 46.7227 19.0876V25.0876C46.7227 26.7445 48.0604 28.0876 49.7106 28.0876C51.3608 28.0876 52.6986 26.7445 52.6986 25.0876V19.0876Z" fill="white"/>
<path d="M61.6635 19.0876C61.6635 17.4308 60.3256 16.0876 58.6755 16.0876C57.0252 16.0876 55.6875 17.4308 55.6875 19.0876V25.0876C55.6875 26.7445 57.0252 28.0876 58.6755 28.0876C60.3256 28.0876 61.6635 26.7445 61.6635 25.0876V19.0876Z" fill="white"/>
</g>
</g>
</svg>
